<svg width="46" height="38" viewBox="0 0 46 38" fill="none" xmlns="http://www.w3.org/2000/svg">
<path fill-rule="evenodd" clip-rule="evenodd" d="M40.5963 37.9151C39.2903 37.9651 37.6198 38 35.4999 38C33.3803 38 31.7099 37.9651 30.4039 37.9151C27.3515 37.7982 25.1421 35.4586 25.0601 32.4441C25.0249 31.147 25 29.4997 25 27.4326L25.0005 17.9375C25.0006 8.3665 31.3613 2.4442 38.7548 0.161201C39.7618 -0.1498 41.0497 -0.0583005 41.9399 0.8665C42.6111 1.5638 43.0736 2.368 43.3896 3.0821C44.1932 4.898 43.0699 6.626 41.734 7.4445C39.6136 8.7439 38.0813 10.197 37.0742 11.8823C36.9537 12.0838 36.8403 12.2895 36.7338 12.4997C35.5874 14.7638 37.72 16.9895 40.2571 17.0494C43.4531 17.1248 45.869 19.5478 45.9481 22.7402C45.979 23.9853 46 25.5314 46 27.4326C46 29.4999 45.9751 31.1473 45.9398 32.4445C45.8578 35.4588 43.6485 37.7982 40.5963 37.9151ZM15.5963 37.9151C14.2903 37.9651 12.6198 38 10.4999 38C8.3803 38 6.7099 37.9651 5.4039 37.9151C2.3515 37.7982 0.142102 35.4586 0.060101 32.4441C0.0249029 31.147 7.4312e-07 29.4997 9.23831e-07 27.4326L0.000600661 17.9378C0.000601498 8.3669 6.3613 2.4448 13.7548 0.161698C14.7618 -0.149203 16.0497 -0.0577037 16.9399 0.866998C17.6111 1.5643 18.0735 2.3685 18.3896 3.0827C19.1932 4.8985 18.0699 6.6265 16.734 7.4451C14.6135 8.7444 13.0813 10.1975 12.0742 11.8827C11.9539 12.0841 11.8405 12.2897 11.7341 12.4997C10.5875 14.7638 12.72 16.9895 15.2571 17.0494C18.4531 17.1248 20.869 19.5478 20.9481 22.7402C20.979 23.9853 21 25.5314 21 27.4326C21 29.4999 20.9751 31.1473 20.9398 32.4445C20.8578 35.4588 18.6485 37.7982 15.5963 37.9151Z" fill="#E9E9E9"/>
</svg>
