<svg width="727" height="57" viewBox="0 0 727 57" fill="none" xmlns="http://www.w3.org/2000/svg">
<path d="M0 28H126" stroke="#0B0B0B"/>
<circle cx="126" cy="28" r="5.5" fill="#0B0B0B" stroke="#0B0B0B"/>
<path d="M150.16 14.032V12.4H165.616C174.448 12.4 178.288 15.616 178.288 20.896C178.288 24.112 176.56 26.896 172.048 28.192C176.896 29.008 180.256 31.552 180.256 36.544C180.256 41.92 176.128 46 166.864 46H150.16V44.368H152.944C153.808 44.368 154.336 43.888 154.336 42.64V15.76C154.336 14.512 153.808 14.032 152.944 14.032H150.16ZM164.8 14.032H158.752V27.568H165.424C171.952 27.568 173.776 24.688 173.776 21.04C173.776 16.48 171.28 14.032 164.8 14.032ZM175.504 36.64C175.504 31.936 173.104 29.152 166.144 29.152H158.752V42.736C158.752 43.888 159.232 44.368 160.24 44.368H167.104C173.488 44.368 175.504 40.96 175.504 36.64ZM190.642 17.824C188.962 17.824 187.81 16.72 187.81 15.088C187.81 13.36 188.962 12.304 190.642 12.304C192.418 12.304 193.57 13.36 193.57 15.088C193.57 16.72 192.418 17.824 190.642 17.824ZM193.138 22.096V42.88C193.138 43.936 193.522 44.464 194.338 44.464H197.026V46H184.882V44.464H187.57C188.386 44.464 188.77 43.936 188.77 42.928V25.168C188.77 24.16 188.386 23.68 187.57 23.68H184.882V22.096H193.138ZM204.872 44.464H213.992C219.08 44.464 219.752 43.936 220.376 37.36H221.912V46H200.216V44.272L216.872 23.68H208.568C203.72 23.68 203.096 24.112 202.568 30.016H200.984V22.096H221.432V23.824L204.872 44.464ZM237.372 44.464V46H225.804V44.464H228.492C229.308 44.464 229.692 43.936 229.692 42.928V25.168C229.692 24.16 229.308 23.68 228.492 23.68H225.804V22.096H233.916V26.944H234.156C236.508 23.872 239.484 21.616 243.516 21.616C248.46 21.616 251.244 24.448 251.244 29.488V42.976C251.244 43.984 251.628 44.464 252.492 44.464H255.132V46H243.564V44.464H245.676C246.492 44.464 246.876 43.936 246.876 42.88V28.96C246.876 25.696 245.292 23.776 242.172 23.776C238.668 23.776 235.932 26.368 234.06 29.68V42.88C234.06 43.936 234.396 44.464 235.26 44.464H237.372ZM263.673 17.824C261.993 17.824 260.841 16.72 260.841 15.088C260.841 13.36 261.993 12.304 263.673 12.304C265.449 12.304 266.601 13.36 266.601 15.088C266.601 16.72 265.449 17.824 263.673 17.824ZM266.169 22.096V42.88C266.169 43.936 266.553 44.464 267.369 44.464H270.057V46H257.913V44.464H260.601C261.417 44.464 261.801 43.936 261.801 42.928V25.168C261.801 24.16 261.417 23.68 260.601 23.68H257.913V22.096H266.169ZM284.575 44.464V46H273.007V44.464H275.695C276.511 44.464 276.895 43.936 276.895 42.928V25.168C276.895 24.16 276.511 23.68 275.695 23.68H273.007V22.096H281.119V26.944H281.359C283.711 23.872 286.687 21.616 290.719 21.616C295.663 21.616 298.447 24.448 298.447 29.488V42.976C298.447 43.984 298.831 44.464 299.695 44.464H302.335V46H290.767V44.464H292.879C293.695 44.464 294.079 43.936 294.079 42.88V28.96C294.079 25.696 292.495 23.776 289.375 23.776C285.871 23.776 283.135 26.368 281.263 29.68V42.88C281.263 43.936 281.599 44.464 282.463 44.464H284.575ZM330.657 48.88C330.657 52.864 327.441 56.08 318.033 56.08C310.065 56.08 306.081 54.352 306.081 50.56C306.081 48.16 307.713 46.528 310.689 45.664C307.761 45.136 306.321 43.792 305.889 42.16C305.793 41.68 305.745 41.152 305.793 40.672C305.937 38.8 307.617 37.264 310.833 36.688C308.865 35.392 307.569 33.424 307.377 30.928C307.329 30.544 307.329 30.16 307.377 29.776C307.665 24.832 312.129 22 317.745 22C318.705 22 319.617 22.096 320.433 22.288C321.873 18.88 324.129 16.864 327.489 16.864C330.177 16.864 331.809 18.448 331.809 20.176C331.809 21.76 330.705 22.624 329.457 22.624C328.257 22.624 327.297 22 327.201 20.704C327.201 20.464 327.201 20.224 327.249 19.984C327.393 19.552 327.681 19.216 328.065 18.976C327.633 18.832 327.201 18.736 326.673 18.736C324.561 18.88 323.073 20.464 322.209 22.672C325.425 23.824 327.633 26.272 327.825 29.776C327.873 30.16 327.873 30.544 327.873 30.88C327.537 35.728 323.217 38.464 317.745 38.464C316.017 38.464 314.337 38.224 312.897 37.648C309.825 37.792 308.673 38.848 308.673 40.144C308.673 40.288 308.721 40.432 308.721 40.576C308.913 41.968 310.305 42.592 314.193 42.592H321.681C328.353 42.784 330.657 44.944 330.657 48.88ZM311.649 30.208C311.649 34.672 313.761 37.024 317.745 37.024C321.585 37.024 323.649 34.672 323.649 30.208C323.649 25.744 321.585 23.44 317.745 23.44C313.761 23.44 311.649 25.744 311.649 30.208ZM318.033 54.544C324.849 54.544 327.105 52.72 327.105 49.984C327.105 47.104 324.993 46.048 318.033 46.048C311.121 46.048 309.201 47.584 309.201 50.128C309.201 52.96 311.457 54.544 318.033 54.544ZM352.174 44.368V46H341.518V44.368H342.862C344.302 44.368 345.454 43.744 347.518 40.864L356.014 29.056L347.998 17.536C345.982 14.608 344.974 14.032 343.246 14.032H342.382V12.4H355.774V14.032H353.374C351.55 14.032 351.742 15.232 352.75 16.672L359.23 26.176L366.142 16.672C367.534 14.752 367.63 14.032 364.318 14.032H363.358V12.4H373.534V14.032H372.19C370.75 14.032 369.934 14.704 367.87 17.536L360.43 27.808L369.502 40.864C371.518 43.792 372.526 44.368 374.254 44.368H375.118V46H361.774V44.368H364.126C365.95 44.368 365.806 43.168 364.798 41.728L357.214 30.736L349.246 41.728C347.854 43.648 347.758 44.368 351.07 44.368H352.174ZM383.251 17.824C381.571 17.824 380.419 16.72 380.419 15.088C380.419 13.36 381.571 12.304 383.251 12.304C385.027 12.304 386.179 13.36 386.179 15.088C386.179 16.72 385.027 17.824 383.251 17.824ZM385.747 22.096V42.88C385.747 43.936 386.131 44.464 386.947 44.464H389.635V46H377.491V44.464H380.179C380.995 44.464 381.379 43.936 381.379 42.928V25.168C381.379 24.16 380.995 23.68 380.179 23.68H377.491V22.096H385.747ZM397.481 44.464H406.601C411.689 44.464 412.361 43.936 412.985 37.36H414.521V46H392.825V44.272L409.481 23.68H401.177C396.329 23.68 395.705 24.112 395.177 30.016H393.593V22.096H414.041V23.824L397.481 44.464ZM429.981 44.464V46H418.413V44.464H421.101C421.917 44.464 422.301 43.936 422.301 42.928V25.168C422.301 24.16 421.917 23.68 421.101 23.68H418.413V22.096H426.525V26.944H426.765C429.069 23.824 431.901 21.616 435.789 21.616C439.725 21.616 442.269 23.584 442.893 27.184H443.037C445.485 23.776 448.221 21.616 452.301 21.616C457.005 21.616 459.693 24.448 459.693 29.488V42.976C459.693 43.984 460.077 44.464 460.941 44.464H463.581V46H452.013V44.464H454.125C454.989 44.464 455.373 43.936 455.373 42.88V28.96C455.373 25.696 453.885 23.776 450.957 23.776C447.645 23.776 445.053 26.416 443.181 29.68V42.976C443.181 43.984 443.565 44.464 444.429 44.464H446.685V46H435.501V44.464H437.613C438.477 44.464 438.813 43.936 438.813 42.88V28.96C438.813 25.696 437.325 23.776 434.445 23.776C431.085 23.776 428.541 26.416 426.669 29.68V42.88C426.669 43.936 427.005 44.464 427.869 44.464H429.981ZM492.24 41.824C492.24 44.8 490.8 46.192 488.784 46.384C487.92 46.432 487.056 46.336 486.288 45.952C484.608 45.52 483.648 44.32 483.312 42.592H483.072C481.296 44.848 478.56 46.24 475.248 46.384C474.528 46.432 473.808 46.432 473.088 46.384C469.488 45.952 467.184 43.792 467.184 40.672C467.184 37.984 468.336 35.968 472.08 34.576C472.56 34.432 472.992 34.288 473.472 34.096C482.256 31.312 482.928 30.928 482.928 28.96V28.336C482.688 25.456 480.816 23.296 476.592 23.296C476.352 23.296 476.064 23.296 475.824 23.344C473.28 23.536 471.648 24.64 470.784 25.648C470.976 25.696 471.168 25.744 471.312 25.792C472.272 25.936 472.896 26.752 472.896 27.712C472.896 29.344 471.696 30.064 470.352 30.064C470.112 30.064 469.872 30.016 469.68 29.92C468.672 29.728 467.855 28.816 467.855 27.52V27.328C467.952 24.784 471.648 21.616 477.648 21.616C483.984 21.616 487.152 24.112 487.248 29.968C487.296 30.256 487.296 30.544 487.296 30.88V42.208C487.296 43.984 487.872 44.656 488.88 44.656C489.072 44.656 489.216 44.608 489.359 44.56C489.984 44.368 490.464 43.744 490.608 42.64C490.656 42.352 490.656 42.016 490.656 41.68V40.336H492.24V41.824ZM476.208 44.416C479.328 44.416 481.776 42.736 482.592 40.336C482.832 39.664 482.928 38.992 482.928 38.272V32.272C477.888 35.056 471.6 34.768 471.6 40C471.6 42.976 473.472 44.416 476.208 44.416ZM509.662 40.912C509.662 44.368 507.694 46.48 504.046 46.48C499.822 46.48 497.71 44.56 497.71 39.712V23.68H493.822V22.096H495.79C497.95 22.096 498.958 21.52 499.39 18.448L499.726 16.048H502.03V22.096H509.854V23.68H502.03V40.576C502.03 43.6 503.086 44.56 504.958 44.56C506.782 44.56 508.078 43.6 508.078 40.768V38.368H509.662V40.912ZM520.88 11.44V42.88C520.88 43.936 521.264 44.464 522.128 44.464H524.768V46H512.672V44.464H515.312C516.176 44.464 516.56 43.936 516.56 42.928V14.512C516.56 13.504 516.176 12.976 515.312 12.976H512.672V11.44H520.88ZM553.646 41.824C553.646 44.8 552.206 46.192 550.19 46.384C549.326 46.432 548.462 46.336 547.694 45.952C546.014 45.52 545.054 44.32 544.718 42.592H544.478C542.702 44.848 539.966 46.24 536.654 46.384C535.934 46.432 535.214 46.432 534.494 46.384C530.894 45.952 528.59 43.792 528.59 40.672C528.59 37.984 529.742 35.968 533.486 34.576C533.966 34.432 534.398 34.288 534.878 34.096C543.662 31.312 544.334 30.928 544.334 28.96V28.336C544.094 25.456 542.222 23.296 537.998 23.296C537.758 23.296 537.47 23.296 537.23 23.344C534.686 23.536 533.054 24.64 532.19 25.648C532.382 25.696 532.574 25.744 532.718 25.792C533.678 25.936 534.302 26.752 534.302 27.712C534.302 29.344 533.102 30.064 531.758 30.064C531.518 30.064 531.278 30.016 531.086 29.92C530.078 29.728 529.262 28.816 529.262 27.52V27.328C529.358 24.784 533.054 21.616 539.054 21.616C545.39 21.616 548.558 24.112 548.654 29.968C548.702 30.256 548.702 30.544 548.702 30.88V42.208C548.702 43.984 549.278 44.656 550.286 44.656C550.478 44.656 550.622 44.608 550.766 44.56C551.39 44.368 551.87 43.744 552.014 42.64C552.062 42.352 552.062 42.016 552.062 41.68V40.336H553.646V41.824ZM537.614 44.416C540.734 44.416 543.182 42.736 543.998 40.336C544.238 39.664 544.334 38.992 544.334 38.272V32.272C539.294 35.056 533.006 34.768 533.006 40C533.006 42.976 534.878 44.416 537.614 44.416ZM569.227 44.464V46H556.507V44.464H559.195C560.107 44.464 560.395 43.936 560.395 42.928V25.168C560.395 24.16 560.107 23.68 559.195 23.68H556.507V22.096H564.619V27.328H564.859C566.827 23.968 569.659 21.616 572.635 21.616C575.179 21.616 576.715 23.248 576.715 25.168C576.715 26.896 575.563 27.856 574.171 27.856C572.779 27.856 571.675 27.136 571.675 25.6C571.675 24.976 572.011 24.448 572.491 24.16C572.251 24.016 571.915 23.968 571.531 23.968C568.939 23.968 566.443 26.944 564.763 30.544V42.88C564.763 43.936 565.051 44.464 565.963 44.464H569.227Z" fill="#0B0B0B"/>
<path d="M727 28H601" stroke="#0B0B0B"/>
<circle cx="6" cy="6" r="5.5" transform="matrix(-1 0 0 1 607 22)" fill="#0B0B0B" stroke="#0B0B0B"/>
</svg>
