<svg width="154" height="65" viewBox="0 0 154 65" fill="none" xmlns="http://www.w3.org/2000/svg">
<path d="M0.744141 48.1896V17.5574L9.67168 26.5229V48.1896H0.744141Z" fill="white"/>
<path d="M43.5219 48.563V17.9309L34.5942 26.8963V48.563H43.5219Z" fill="white"/>
<path d="M22.3186 23.908L7.81137 9.33909L1.11572 16.0632L22.3186 37.3563L52.449 6.35057L46.1254 0L22.3186 23.908Z" fill="white"/>
<path d="M74.9615 30.6321C76.0409 30.7914 76.8661 31.3174 77.4375 32.2101C78.0087 33.0707 78.2945 34.2502 78.2945 35.7484V40.4344C78.2945 43.3034 77.6599 45.3754 76.3899 46.6505C75.12 47.9256 73.0569 48.5631 70.2002 48.5631H52.3452C51.869 48.5631 51.6309 48.3241 51.6309 47.846V15.8091C51.6309 15.331 51.869 15.0919 52.3452 15.0919H70.2002C72.5808 15.0919 74.3584 15.6816 75.5329 16.8611C76.7388 18.0087 77.3422 19.7301 77.3422 22.0253V24.942C77.3422 26.4401 77.1361 27.6516 76.7232 28.5759C76.3103 29.5004 75.7233 30.1061 74.9615 30.3929V30.6321ZM56.1542 19.1562V29.1977H69.0098C70.3112 29.1977 71.2635 28.8948 71.8666 28.2891C72.5014 27.6516 72.8189 26.6793 72.8189 25.3724V22.7424C72.8189 20.3517 71.6603 19.1562 69.3432 19.1562H56.1542ZM73.7712 37.0872C73.7712 35.7803 73.4537 34.8241 72.8189 34.2182C72.2158 33.5808 71.2635 33.2619 69.962 33.2619H56.1542V44.4988H69.962C71.2635 44.4988 72.2158 44.1959 72.8189 43.5902C73.4537 42.9528 73.7712 41.9804 73.7712 40.6735V37.0872ZM94.9407 48.8022C92.2109 48.8022 90.1316 48.1008 88.7031 46.6982C87.3068 45.2638 86.6082 43.1759 86.6082 40.4344V23.2207C86.6082 20.4792 87.3068 18.4072 88.7031 17.0045C90.1316 15.57 92.2109 14.8528 94.9407 14.8528H106.368C109.097 14.8528 111.161 15.57 112.558 17.0045C113.986 18.4072 114.7 20.4792 114.7 23.2207V40.4344C114.7 43.1759 113.986 45.2638 112.558 46.6982C111.161 48.1008 109.097 48.8022 106.368 48.8022H94.9407ZM106.13 44.7378C107.431 44.7378 108.431 44.3872 109.129 43.686C109.828 42.9846 110.177 41.9804 110.177 40.6735V22.9815C110.177 21.6746 109.828 20.6705 109.129 19.9691C108.431 19.2679 107.431 18.9171 106.13 18.9171H95.1787C93.8775 18.9171 92.8776 19.2679 92.1791 19.9691C91.4805 20.6705 91.1315 21.6746 91.1315 22.9815V40.6735C91.1315 41.9804 91.4805 42.9846 92.1791 43.686C92.8776 44.3872 93.8775 44.7378 95.1787 44.7378H106.13ZM131.581 48.8022C128.724 48.8022 126.661 48.1646 125.391 46.8895C124.121 45.6144 123.486 43.5424 123.486 40.6735V38.7608C123.486 38.2827 123.725 38.0435 124.201 38.0435H127.296C127.772 38.0435 128.01 38.2827 128.01 38.7608V40.9125C128.01 42.2196 128.311 43.1918 128.914 43.8294C129.549 44.4351 130.518 44.7378 131.819 44.7378H141.341C142.643 44.7378 143.595 44.4351 144.198 43.8294C144.833 43.1918 145.151 42.2196 145.151 40.9125V37.8045C145.151 36.4976 144.833 35.5412 144.198 34.9355C143.595 34.2981 142.643 33.9792 141.341 33.9792H131.819C128.962 33.9792 126.899 33.3418 125.629 32.0665C124.359 30.7914 123.725 28.7195 123.725 25.8505V22.9815C123.725 20.1125 124.359 18.0406 125.629 16.7654C126.899 15.4903 128.962 14.8528 131.819 14.8528H141.341C144.198 14.8528 146.261 15.4903 147.531 16.7654C148.801 18.0406 149.436 20.1125 149.436 22.9815V24.8943C149.436 25.3724 149.198 25.6114 148.722 25.6114H145.627C145.151 25.6114 144.912 25.3724 144.912 24.8943V22.7424C144.912 21.4355 144.595 20.4792 143.96 19.8735C143.357 19.2359 142.405 18.9171 141.103 18.9171H132.057C130.756 18.9171 129.787 19.2359 129.152 19.8735C128.549 20.4792 128.248 21.4355 128.248 22.7424V26.0895C128.248 27.3966 128.549 28.3688 129.152 29.0064C129.787 29.6121 130.756 29.9148 132.057 29.9148H141.58C144.436 29.9148 146.499 30.5524 147.769 31.8275C149.039 33.1026 149.674 35.1747 149.674 38.0435V40.6735C149.674 43.5424 149.039 45.6144 147.769 46.8895C146.499 48.1646 144.436 48.8022 141.58 48.8022H131.581Z" fill="white"/>
<path d="M0.941322 63.5056C0.855766 63.5056 0.812988 63.4627 0.812988 63.3767V57.6201C0.812988 57.5343 0.855766 57.4912 0.941322 57.4912H1.55732C1.60295 57.4912 1.64003 57.5026 1.66854 57.5256C1.69706 57.5427 1.72843 57.5744 1.76266 57.6201L3.80744 60.5069H3.85878L5.88644 57.6201C5.92066 57.5744 5.95203 57.5427 5.98054 57.5256C6.00906 57.5026 6.04613 57.4912 6.09178 57.4912H6.70778C6.79332 57.4912 6.8361 57.5343 6.8361 57.6201V63.3767C6.8361 63.4627 6.79332 63.5056 6.70778 63.5056H6.15166C6.0661 63.5056 6.02332 63.4627 6.02332 63.3767V58.8143H5.98054L4.23522 61.2889C4.16678 61.3747 4.08978 61.4177 4.00422 61.4177H3.64488C3.55932 61.4177 3.48232 61.3747 3.41388 61.2889L1.66854 58.8143H1.62577V63.3767C1.62577 63.4627 1.58299 63.5056 1.49743 63.5056H0.941322ZM10.3829 63.5485C9.8923 63.5485 9.51876 63.4226 9.26208 63.1705C9.01108 62.9127 8.88564 62.5375 8.88564 62.0449V57.6201C8.88564 57.5343 8.92842 57.4912 9.01398 57.4912H9.57008C9.65564 57.4912 9.69842 57.5343 9.69842 57.6201V62.0449C9.69842 62.2798 9.76113 62.4601 9.88664 62.5862C10.0121 62.7124 10.1917 62.7752 10.4256 62.7752H12.094C12.3278 62.7752 12.5075 62.7124 12.633 62.5862C12.7584 62.4601 12.8212 62.2798 12.8212 62.0449V57.6201C12.8212 57.5343 12.864 57.4912 12.9495 57.4912H13.5056C13.5912 57.4912 13.634 57.5343 13.634 57.6201V62.0449C13.634 62.5375 13.5056 62.9127 13.249 63.1705C12.998 63.4226 12.6272 63.5485 12.1368 63.5485H10.3829ZM15.8594 63.5056C15.7738 63.5056 15.731 63.4627 15.731 63.3767V57.6201C15.731 57.5343 15.7738 57.4912 15.8594 57.4912H16.4155C16.501 57.4912 16.5438 57.5343 16.5438 57.6201V62.7323H19.6239C19.7093 62.7323 19.7521 62.7752 19.7521 62.8613V63.3767C19.7521 63.4627 19.7093 63.5056 19.6239 63.5056H15.8594ZM24.6695 57.4912C24.7551 57.4912 24.7979 57.5343 24.7979 57.6201V58.1357C24.7979 58.2215 24.7551 58.2645 24.6695 58.2645H22.7017V63.3767C22.7017 63.4627 22.659 63.5056 22.5735 63.5056H22.0173C21.9317 63.5056 21.889 63.4627 21.889 63.3767V58.2645H19.9213C19.8357 58.2645 19.7929 58.2215 19.7929 58.1357V57.6201C19.7929 57.5343 19.8357 57.4912 19.9213 57.4912H24.6695ZM28.0083 58.2215V62.7752H29.2489C29.3343 62.7752 29.3771 62.8182 29.3771 62.9042V63.3767C29.3771 63.4627 29.3343 63.5056 29.2489 63.5056H25.9549C25.8693 63.5056 25.8265 63.4627 25.8265 63.3767V62.9042C25.8265 62.8182 25.8693 62.7752 25.9549 62.7752H27.1955V58.2215H25.9549C25.8693 58.2215 25.8265 58.1786 25.8265 58.0926V57.6201C25.8265 57.5343 25.8693 57.4912 25.9549 57.4912H29.2489C29.3343 57.4912 29.3771 57.5343 29.3771 57.6201V58.0926C29.3771 58.1786 29.3343 58.2215 29.2489 58.2215H28.0083ZM35.3267 60.2837C35.5206 60.3123 35.6689 60.4068 35.7715 60.5672C35.8741 60.7217 35.9255 60.9337 35.9255 61.2029V62.0449C35.9255 62.5605 35.8114 62.9328 35.5833 63.1619C35.3552 63.391 34.9843 63.5056 34.4711 63.5056H31.2627C31.1771 63.5056 31.1343 63.4627 31.1343 63.3767V57.6201C31.1343 57.5343 31.1771 57.4912 31.2627 57.4912H34.4711C34.8989 57.4912 35.2184 57.5971 35.4293 57.8091C35.6462 58.0154 35.7543 58.3247 35.7543 58.7371V59.2612C35.7543 59.5304 35.7174 59.7481 35.6431 59.9142C35.5692 60.0802 35.4635 60.189 35.3267 60.2406V60.2837ZM31.9471 58.2215V60.0258H34.2571C34.491 60.0258 34.6622 59.9714 34.7705 59.8626C34.8846 59.7481 34.9417 59.5733 34.9417 59.3385V58.8659C34.9417 58.4363 34.7334 58.2215 34.3171 58.2215H31.9471ZM35.1127 61.4434C35.1127 61.2087 35.0558 61.0368 34.9417 60.928C34.8334 60.8134 34.6622 60.7562 34.4283 60.7562H31.9471V62.7752H34.4283C34.6622 62.7752 34.8334 62.7208 34.9417 62.612C35.0558 62.4974 35.1127 62.3227 35.1127 62.088V61.4434ZM42.3389 63.2993C42.3731 63.3337 42.3901 63.3682 42.3901 63.4025C42.3901 63.4311 42.3788 63.4569 42.3559 63.4798C42.3332 63.497 42.3018 63.5056 42.2619 63.5056H41.6287C41.5773 63.5056 41.5345 63.4998 41.5003 63.4885C41.4661 63.4712 41.4319 63.4425 41.3977 63.4025L38.8823 60.6272H38.5743V63.3767C38.5743 63.4627 38.5315 63.5056 38.4461 63.5056H37.8899C37.8043 63.5056 37.7615 63.4627 37.7615 63.3767V57.6201C37.7615 57.5343 37.8043 57.4912 37.8899 57.4912H40.9271C41.4405 57.4912 41.8114 57.6058 42.0393 57.8349C42.2676 58.064 42.3815 58.4363 42.3815 58.9519V59.1667C42.3815 59.6821 42.2676 60.0544 42.0393 60.2837C41.8114 60.5128 41.4405 60.6272 40.9271 60.6272H39.9861V60.6875L42.3389 63.2993ZM38.5743 58.2215V59.897H40.8843C41.1184 59.897 41.2894 59.8426 41.3977 59.7337C41.5118 59.6192 41.5689 59.4443 41.5689 59.2096V58.909C41.5689 58.6741 41.5118 58.5022 41.3977 58.3934C41.2894 58.2788 41.1184 58.2215 40.8843 58.2215H38.5743ZM48.8189 63.3166C48.8304 63.3624 48.8359 63.391 48.8359 63.4025C48.8359 63.4712 48.796 63.5056 48.7163 63.5056H48.1773C48.0745 63.5056 48.0118 63.4627 47.9889 63.3767L47.6467 62.0449H44.7379L44.3957 63.3767C44.3728 63.4627 44.3101 63.5056 44.2075 63.5056H43.6685C43.5886 63.5056 43.5487 63.4712 43.5487 63.4025C43.5487 63.391 43.5544 63.3624 43.5657 63.3166L45.1143 57.6201C45.1428 57.5343 45.2056 57.4912 45.3025 57.4912H47.0821C47.1847 57.4912 47.2476 57.5343 47.2703 57.6201L48.8189 63.3166ZM45.6875 58.3074L45.1399 60.4812L44.9261 61.3147H47.4585L47.2447 60.4812L46.6971 58.3074H45.6875ZM50.5084 63.5056C50.4228 63.5056 50.38 63.4627 50.38 63.3767V57.6201C50.38 57.5343 50.4228 57.4912 50.5084 57.4912H51.1244C51.1758 57.4912 51.2156 57.4998 51.2442 57.517C51.2784 57.5343 51.3098 57.5657 51.3382 57.6115L54.4526 62.1825H54.5038V57.6201C54.5038 57.5343 54.5466 57.4912 54.6322 57.4912H55.1712C55.2568 57.4912 55.2996 57.5343 55.2996 57.6201V63.3767C55.2996 63.4627 55.2568 63.5056 55.1712 63.5056H54.5552C54.5038 63.5056 54.461 63.497 54.4268 63.4798C54.3984 63.4627 54.3699 63.4311 54.3412 63.3853L51.227 58.8143H51.1758V63.3767C51.1758 63.4627 51.133 63.5056 51.0474 63.5056H50.5084ZM58.8042 63.5485C58.3137 63.5485 57.9402 63.4226 57.6836 63.1705C57.4325 62.9127 57.307 62.5375 57.307 62.0449V58.9519C57.307 58.4593 57.4325 58.0869 57.6836 57.8349C57.9402 57.5772 58.3137 57.4482 58.8042 57.4482H60.6438C61.1342 57.4482 61.5049 57.5772 61.756 57.8349C62.0126 58.0869 62.141 58.4593 62.141 58.9519V59.2525C62.141 59.3385 62.0982 59.3815 62.0126 59.3815H61.4564C61.371 59.3815 61.3282 59.3385 61.3282 59.2525V58.909C61.3282 58.6741 61.2655 58.4937 61.14 58.3676C61.0144 58.2415 60.8348 58.1786 60.601 58.1786H58.847C58.6131 58.1786 58.4335 58.2415 58.308 58.3676C58.1826 58.4937 58.1198 58.6741 58.1198 58.909V62.088C58.1198 62.3227 58.1826 62.5032 58.308 62.6292C58.4335 62.7553 58.6131 62.8182 58.847 62.8182H60.601C60.8348 62.8182 61.0144 62.7553 61.14 62.6292C61.2655 62.5032 61.3282 62.3227 61.3282 62.088V61.7442C61.3282 61.6582 61.371 61.6153 61.4564 61.6153H62.0126C62.0982 61.6153 62.141 61.6582 62.141 61.7442V62.0449C62.141 62.5375 62.0126 62.9127 61.756 63.1705C61.5049 63.4226 61.1342 63.5485 60.6438 63.5485H58.8042ZM68.7746 57.4912C68.86 57.4912 68.9028 57.5343 68.9028 57.6201V63.3767C68.9028 63.4627 68.86 63.5056 68.7746 63.5056H68.2184C68.1328 63.5056 68.09 63.4627 68.09 63.3767V60.842H64.9246V63.3767C64.9246 63.4627 64.8818 63.5056 64.7962 63.5056H64.24C64.1546 63.5056 64.1118 63.4627 64.1118 63.3767V57.6201C64.1118 57.5343 64.1546 57.4912 64.24 57.4912H64.7962C64.8818 57.4912 64.9246 57.5343 64.9246 57.6201V60.0687H68.09V57.6201C68.09 57.5343 68.1328 57.4912 68.2184 57.4912H68.7746ZM74.801 63.5485C74.3104 63.5485 73.9367 63.4226 73.6801 63.1705C73.4292 62.9127 73.3036 62.5375 73.3036 62.0449V58.9519C73.3036 58.4593 73.4292 58.0869 73.6801 57.8349C73.9367 57.5772 74.3104 57.4482 74.801 57.4482H76.8544C77.3447 57.4482 77.7152 57.5772 77.9666 57.8349C78.2232 58.0869 78.3513 58.4593 78.3513 58.9519V62.0449C78.3513 62.5375 78.2232 62.9127 77.9666 63.1705C77.7152 63.4226 77.3447 63.5485 76.8544 63.5485H74.801ZM76.8113 62.8182C77.0457 62.8182 77.2249 62.7553 77.3506 62.6292C77.4756 62.5032 77.5388 62.3227 77.5388 62.088V58.909C77.5388 58.6741 77.4756 58.4937 77.3506 58.3676C77.2249 58.2415 77.0457 58.1786 76.8113 58.1786H74.8435C74.6098 58.1786 74.4298 58.2415 74.3046 58.3676C74.1791 58.4937 74.1164 58.6741 74.1164 58.909V62.088C74.1164 62.3227 74.1791 62.5032 74.3046 62.6292C74.4298 62.7553 74.6098 62.8182 74.8435 62.8182H76.8113ZM80.5287 63.5056C80.4433 63.5056 80.4009 63.4627 80.4009 63.3767V57.6201C80.4009 57.5343 80.4433 57.4912 80.5287 57.4912H81.0853C81.1709 57.4912 81.2133 57.5343 81.2133 57.6201V62.7323H84.2933C84.3788 62.7323 84.4219 62.7752 84.4219 62.8613V63.3767C84.4219 63.4627 84.3788 63.5056 84.2933 63.5056H80.5287ZM87.6717 58.2215V62.7752H88.9124C88.998 62.7752 89.0405 62.8182 89.0405 62.9042V63.3767C89.0405 63.4627 88.998 63.5056 88.9124 63.5056H85.6183C85.5327 63.5056 85.4902 63.4627 85.4902 63.3767V62.9042C85.4902 62.8182 85.5327 62.7752 85.6183 62.7752H86.8592V58.2215H85.6183C85.5327 58.2215 85.4902 58.1786 85.4902 58.0926V57.6201C85.4902 57.5343 85.5327 57.4912 85.6183 57.4912H88.9124C88.998 57.4912 89.0405 57.5343 89.0405 57.6201V58.0926C89.0405 58.1786 88.998 58.2215 88.9124 58.2215H87.6717ZM90.8833 63.5056C90.7977 63.5056 90.7545 63.4627 90.7545 63.3767V57.6201C90.7545 57.5343 90.7977 57.4912 90.8833 57.4912H91.4993C91.5507 57.4912 91.5908 57.4998 91.6191 57.517C91.6533 57.5343 91.6844 57.5657 91.7127 57.6115L94.8269 62.1825H94.8783V57.6201C94.8783 57.5343 94.9215 57.4912 95.0071 57.4912H95.5457C95.6313 57.4912 95.6743 57.5343 95.6743 57.6201V63.3767C95.6743 63.4627 95.6313 63.5056 95.5457 63.5056H94.9297C94.8783 63.5056 94.8359 63.497 94.8017 63.4798C94.7734 63.4627 94.7444 63.4311 94.7161 63.3853L91.6019 58.8143H91.5507V63.3767C91.5507 63.4627 91.5075 63.5056 91.4219 63.5056H90.8833ZM101.831 62.7752C101.917 62.7752 101.959 62.8182 101.959 62.9042V63.3767C101.959 63.4627 101.917 63.5056 101.831 63.5056H97.8958C97.8102 63.5056 97.7671 63.4627 97.7671 63.3767V57.6201C97.7671 57.5343 97.8102 57.4912 97.8958 57.4912H101.746C101.831 57.4912 101.874 57.5343 101.874 57.6201V58.0926C101.874 58.1786 101.831 58.2215 101.746 58.2215H98.5802V60.1118H101.489C101.575 60.1118 101.617 60.1547 101.617 60.2406V60.7133C101.617 60.7991 101.575 60.842 101.489 60.842H98.5802V62.7752H101.831ZM107.392 63.5485C106.879 63.5485 106.507 63.4341 106.28 63.2048C106.051 62.9757 105.937 62.6034 105.937 62.088V61.7442C105.937 61.6582 105.98 61.6153 106.065 61.6153H106.622C106.707 61.6153 106.75 61.6582 106.75 61.7442V62.1309C106.75 62.3656 106.804 62.5405 106.913 62.655C107.026 62.7638 107.201 62.8182 107.434 62.8182H109.145C109.379 62.8182 109.55 62.7638 109.659 62.655C109.772 62.5405 109.83 62.3656 109.83 62.1309V61.5724C109.83 61.3376 109.772 61.1658 109.659 61.0568C109.55 60.9423 109.379 60.8851 109.145 60.8851H107.434C106.921 60.8851 106.55 60.7705 106.322 60.5414C106.093 60.3123 105.98 59.94 105.98 59.4244V58.909C105.98 58.3934 106.093 58.0211 106.322 57.792C106.55 57.5629 106.921 57.4482 107.434 57.4482H109.145C109.659 57.4482 110.029 57.5629 110.258 57.792C110.486 58.0211 110.6 58.3934 110.6 58.909V59.2525C110.6 59.3385 110.557 59.3815 110.472 59.3815H109.915C109.83 59.3815 109.787 59.3385 109.787 59.2525V58.8659C109.787 58.6311 109.73 58.4593 109.616 58.3505C109.508 58.2358 109.336 58.1786 109.103 58.1786H107.477C107.243 58.1786 107.069 58.2358 106.955 58.3505C106.846 58.4593 106.793 58.6311 106.793 58.8659V59.4673C106.793 59.7022 106.846 59.8769 106.955 59.9915C107.069 60.1003 107.243 60.1548 107.477 60.1548H109.189C109.702 60.1548 110.072 60.2692 110.301 60.4985C110.528 60.7276 110.643 61.0999 110.643 61.6153V62.088C110.643 62.6034 110.528 62.9757 110.301 63.2048C110.072 63.4341 109.702 63.5485 109.189 63.5485H107.392ZM116.55 62.7752C116.635 62.7752 116.678 62.8182 116.678 62.9042V63.3767C116.678 63.4627 116.635 63.5056 116.55 63.5056H112.614C112.529 63.5056 112.486 63.4627 112.486 63.3767V57.6201C112.486 57.5343 112.529 57.4912 112.614 57.4912H116.464C116.55 57.4912 116.592 57.5343 116.592 57.6201V58.0926C116.592 58.1786 116.55 58.2215 116.464 58.2215H113.299V60.1118H116.208C116.293 60.1118 116.336 60.1547 116.336 60.2406V60.7133C116.336 60.7991 116.293 60.842 116.208 60.842H113.299V62.7752H116.55ZM123.097 63.2993C123.131 63.3337 123.148 63.3682 123.148 63.4025C123.148 63.4311 123.137 63.4569 123.114 63.4798C123.092 63.497 123.06 63.5056 123.02 63.5056H122.387C122.336 63.5056 122.293 63.4998 122.258 63.4885C122.224 63.4712 122.19 63.4425 122.156 63.4025L119.64 60.6272H119.332V63.3767C119.332 63.4627 119.29 63.5056 119.204 63.5056H118.648C118.562 63.5056 118.52 63.4627 118.52 63.3767V57.6201C118.52 57.5343 118.562 57.4912 118.648 57.4912H121.685C122.199 57.4912 122.569 57.6058 122.798 57.8349C123.025 58.064 123.14 58.4363 123.14 58.9519V59.1667C123.14 59.6821 123.025 60.0544 122.798 60.2837C122.569 60.5128 122.199 60.6272 121.685 60.6272H120.744V60.6875L123.097 63.2993ZM119.332 58.2215V59.897H121.642C121.877 59.897 122.048 59.8426 122.156 59.7337C122.27 59.6192 122.327 59.4443 122.327 59.2096V58.909C122.327 58.6741 122.27 58.5022 122.156 58.3934C122.048 58.2788 121.877 58.2215 121.642 58.2215H119.332ZM126.529 63.5056C126.438 63.5056 126.375 63.4627 126.341 63.3767L124.151 57.663C124.139 57.6288 124.134 57.6058 124.134 57.5943C124.134 57.5256 124.185 57.4912 124.288 57.4912H124.801C124.852 57.4912 124.892 57.5026 124.921 57.5256C124.949 57.5427 124.972 57.5744 124.989 57.6201L126.239 60.928L126.82 62.4746H126.863L127.444 60.928L128.694 57.6201C128.711 57.5744 128.734 57.5427 128.762 57.5256C128.79 57.5026 128.83 57.4912 128.882 57.4912H129.421C129.501 57.4912 129.541 57.5256 129.541 57.5943C129.541 57.6058 129.535 57.6344 129.524 57.6802L127.342 63.3767C127.308 63.4627 127.245 63.5056 127.154 63.5056H126.529ZM132.66 58.2215V62.7752H133.901C133.986 62.7752 134.029 62.8182 134.029 62.9042V63.3767C134.029 63.4627 133.986 63.5056 133.901 63.5056H130.607C130.521 63.5056 130.478 63.4627 130.478 63.3767V62.9042C130.478 62.8182 130.521 62.7752 130.607 62.7752H131.847V58.2215H130.607C130.521 58.2215 130.478 58.1786 130.478 58.0926V57.6201C130.478 57.5343 130.521 57.4912 130.607 57.4912H133.901C133.986 57.4912 134.029 57.5343 134.029 57.6201V58.0926C134.029 58.1786 133.986 58.2215 133.901 58.2215H132.66ZM137.03 63.5485C136.54 63.5485 136.167 63.4226 135.91 63.1705C135.659 62.9127 135.534 62.5375 135.534 62.0449V58.9519C135.534 58.4593 135.659 58.0869 135.91 57.8349C136.167 57.5772 136.54 57.4482 137.03 57.4482H138.87C139.361 57.4482 139.732 57.5772 139.982 57.8349C140.239 58.0869 140.367 58.4593 140.367 58.9519V59.2525C140.367 59.3385 140.325 59.3815 140.239 59.3815H139.683C139.597 59.3815 139.555 59.3385 139.555 59.2525V58.909C139.555 58.6741 139.492 58.4937 139.366 58.3676C139.241 58.2415 139.061 58.1786 138.827 58.1786H137.074C136.84 58.1786 136.66 58.2415 136.534 58.3676C136.409 58.4937 136.346 58.6741 136.346 58.909V62.088C136.346 62.3227 136.409 62.5032 136.534 62.6292C136.66 62.7553 136.84 62.8182 137.074 62.8182H138.827C139.061 62.8182 139.241 62.7553 139.366 62.6292C139.492 62.5032 139.555 62.3227 139.555 62.088V61.7442C139.555 61.6582 139.597 61.6153 139.683 61.6153H140.239C140.325 61.6153 140.367 61.6582 140.367 61.7442V62.0449C140.367 62.5375 140.239 62.9127 139.982 63.1705C139.732 63.4226 139.361 63.5485 138.87 63.5485H137.03ZM146.402 62.7752C146.488 62.7752 146.531 62.8182 146.531 62.9042V63.3767C146.531 63.4627 146.488 63.5056 146.402 63.5056H142.466C142.381 63.5056 142.339 63.4627 142.339 63.3767V57.6201C142.339 57.5343 142.381 57.4912 142.466 57.4912H146.317C146.402 57.4912 146.445 57.5343 146.445 57.6201V58.0926C146.445 58.1786 146.402 58.2215 146.317 58.2215H143.151V60.1118H146.06C146.145 60.1118 146.189 60.1547 146.189 60.2406V60.7133C146.189 60.7991 146.145 60.842 146.06 60.842H143.151V62.7752H146.402ZM149.529 63.5485C149.016 63.5485 148.645 63.4341 148.417 63.2048C148.189 62.9757 148.075 62.6034 148.075 62.088V61.7442C148.075 61.6582 148.118 61.6153 148.203 61.6153H148.759C148.845 61.6153 148.888 61.6582 148.888 61.7442V62.1309C148.888 62.3656 148.942 62.5405 149.05 62.655C149.164 62.7638 149.339 62.8182 149.572 62.8182H151.283C151.517 62.8182 151.688 62.7638 151.797 62.655C151.91 62.5405 151.968 62.3656 151.968 62.1309V61.5724C151.968 61.3376 151.91 61.1658 151.797 61.0568C151.688 60.9423 151.517 60.8851 151.283 60.8851H149.572C149.059 60.8851 148.688 60.7705 148.46 60.5414C148.231 60.3123 148.118 59.94 148.118 59.4244V58.909C148.118 58.3934 148.231 58.0211 148.46 57.792C148.688 57.5629 149.059 57.4482 149.572 57.4482H151.283C151.797 57.4482 152.167 57.5629 152.396 57.792C152.624 58.0211 152.738 58.3934 152.738 58.909V59.2525C152.738 59.3385 152.695 59.3815 152.609 59.3815H152.053C151.968 59.3815 151.925 59.3385 151.925 59.2525V58.8659C151.925 58.6311 151.868 58.4593 151.753 58.3505C151.646 58.2358 151.474 58.1786 151.24 58.1786H149.615C149.381 58.1786 149.207 58.2358 149.093 58.3505C148.984 58.4593 148.93 58.6311 148.93 58.8659V59.4673C148.93 59.7022 148.984 59.8769 149.093 59.9915C149.207 60.1003 149.381 60.1548 149.615 60.1548H151.326C151.839 60.1548 152.21 60.2692 152.438 60.4985C152.666 60.7276 152.78 61.0999 152.78 61.6153V62.088C152.78 62.6034 152.666 62.9757 152.438 63.2048C152.21 63.4341 151.839 63.5485 151.326 63.5485H149.529Z" fill="white"/>
</svg>
