<svg width="20" height="20" viewBox="0 0 20 20" fill="none" xmlns="http://www.w3.org/2000/svg">
<g clip-path="url(#clip0_91_2014)">
<path d="M10 0C7.34844 0 4.80312 1.05422 2.92969 2.92891C1.05433 4.80435 0.000536638 7.34779 0 10C0 12.6511 1.05469 15.1964 2.92969 17.0711C4.80312 18.9458 7.34844 20 10 20C12.6516 20 15.1969 18.9458 17.0703 17.0711C18.9453 15.1964 20 12.6511 20 10C20 7.34891 18.9453 4.80359 17.0703 2.92891C15.1969 1.05422 12.6516 0 10 0Z" fill="url(#paint0_linear_91_2014)"/>
<path d="M4.5267 9.89429C7.44232 8.62429 9.38607 7.787 10.3579 7.38241C13.1361 6.22726 13.7126 6.02663 14.0892 6.01983C14.172 6.01851 14.3564 6.03898 14.4767 6.13624C14.5767 6.21827 14.6048 6.32921 14.6189 6.4071C14.6314 6.48491 14.6486 6.66226 14.6345 6.80069C14.4845 8.38194 13.8329 12.2191 13.5017 13.9902C13.3626 14.7396 13.0861 14.9908 12.8189 15.0154C12.2376 15.0688 11.797 14.6316 11.2345 14.263C10.3548 13.686 9.85795 13.3269 9.00326 12.764C8.01576 12.1134 8.65639 11.7557 9.21889 11.1713C9.36576 11.0184 11.9251 8.69101 11.9736 8.47991C11.9798 8.45351 11.9861 8.35507 11.9267 8.30319C11.8689 8.25116 11.7829 8.26898 11.7204 8.28304C11.6314 8.30304 10.2267 9.23241 7.5017 11.071C7.10326 11.3451 6.74232 11.4787 6.41732 11.4716C6.06107 11.464 5.37357 11.2698 4.86264 11.1038C4.23764 10.9002 3.7392 10.7926 3.78295 10.4468C3.80482 10.2668 4.05326 10.0826 4.5267 9.89429Z" fill="white"/>
</g>
<defs>
<linearGradient id="paint0_linear_91_2014" x1="1000" y1="0" x2="1000" y2="2000" gradientUnits="userSpaceOnUse">
<stop stop-color="#2AABEE"/>
<stop offset="1" stop-color="#229ED9"/>
</linearGradient>
<clipPath id="clip0_91_2014">
<rect width="20" height="20" fill="white"/>
</clipPath>
</defs>
</svg>
